# xmcd
#
# Track frame offsets: 
#        150
#        11244
#        28752
#        42928
#        57366
#        68603
#        89032
#        106605
#        121633
#        135895
#        152463
#        163960
#        178038
#
# Disc length: 2529 seconds
#
# Revision: 1
# Processed by: cddbd v1.5.2PL0 Copyright (c) Steve Scherf et al.
# Submitted via: ExactAudioCopy v0.99pb4
#
DISCID=a009df0d
DTITLE=Nick Curran - Doctor Velvet
DYEAR=2003
DGENRE=Blues
TTITLE0=Doctor Velvet
TTITLE1=Lonesome Whistle Blues
TTITLE2=Shot Down
TTITLE3=Drivin' Me Crazy
TTITLE4=Don't Be Angry
TTITLE5=Please Don't Leave Me
TTITLE6=Midnite Hour
TTITLE7=One More Time
TTITLE8=Can't Stop Lovin' You
TTITLE9=She's Gone
TTITLE10=Beautiful Girl
TTITLE11=Cold Cold Heart
TTITLE12=Stompin' at the Fort
EXTD=
EXTT0=
EXTT1=
EXTT2=
EXTT3=
EXTT4=
EXTT5=
EXTT6=
EXTT7=
EXTT8=
EXTT9=
EXTT10=
EXTT11=
EXTT12=
PLAYORDER=
